<?xml version="1.0" standalone="no"?>
<!DOCTYPE svg PUBLIC "-//W3C//DTD SVG 20010904//EN"
 "http://www.w3.org/TR/2001/REC-SVG-20010904/DTD/svg10.dtd">
<svg version="1.0" xmlns="http://www.w3.org/2000/svg"
 width="879.000000pt" height="1280.000000pt" viewBox="0 0 879.000000 1280.000000"
 preserveAspectRatio="xMidYMid meet">

<g transform="translate(0.000000,1280.000000) scale(0.100000,-0.100000)"
fill="#000000" stroke="none">
<path d="M4413 12786 c-203 -39 -375 -136 -493 -277 -93 -112 -150 -255 -150
-380 l0 -56 -464 -5 -465 -5 -43 -28 c-62 -40 -218 -200 -264 -268 l-38 -59
-151 6 c-334 14 -1518 38 -1630 33 -135 -5 -207 -22 -313 -72 -190 -89 -309
-239 -363 -458 -31 -124 -42 -740 -35 -1937 6 -1104 14 -1513 66 -3575 55
-2181 61 -2506 70 -3805 7 -1156 8 -1187 28 -1260 55 -198 124 -322 243 -436
111 -105 242 -168 403 -194 69 -11 309 -10 5886 19 1682 9 1582 5 1728 77 185
91 278 269 302 578 6 76 14 1160 20 2606 5 1361 15 3604 22 4983 9 1962 9
2532 0 2617 -40 360 -206 590 -478 665 -70 19 -279 28 -1097 46 l-569 13 -15
25 c-78 130 -140 210 -250 319 l-123 122 -429 0 -429 0 -7 68 c-31 298 -256
539 -579 623 -103 27 -283 34 -383 15z m324 -62 c212 -44 379 -151 483 -310
58 -88 88 -182 98 -299 l7 -90 447 -3 448 -2 103 -103 c119 -117 188 -211 257
-347 54 -108 107 -263 116 -345 l7 -55 -309 0 c-170 0 -1148 -5 -2173 -10
-1025 -6 -1865 -9 -1867 -7 -6 6 29 156 56 239 75 226 229 450 392 573 l60 45
478 0 c447 0 479 1 483 18 3 9 5 50 5 90 2 171 94 343 244 457 101 77 254 141
373 158 74 10 222 6 292 -9z m1970 -1756 c-5 -117 -24 -240 -39 -253 -3 -3
-3618 -26 -4025 -25 l-261 0 -17 73 c-9 39 -19 129 -22 200 l-6 127 329 1
c181 1 864 5 1519 8 655 4 1491 8 1859 9 l669 2 -6 -142z m-4761 22 l331 0 11
-104 c14 -125 39 -231 58 -247 11 -9 421 -9 1757 0 958 6 1934 11 2168 11 347
0 429 3 438 14 16 20 50 160 58 240 l6 69 546 -7 c300 -4 547 -9 550 -11 4 -5
-5 -1005 -29 -3415 -5 -514 -14 -1383 -20 -1930 -5 -547 -15 -1485 -21 -2085
-6 -600 -14 -1396 -17 -1770 l-7 -680 -695 -7 c-382 -3 -1219 -11 -1860 -17
-641 -6 -1608 -16 -2150 -21 -542 -5 -1251 -12 -1576 -16 l-592 -7 -6 284 c-3
156 -10 1002 -16 1879 -6 877 -15 2137 -20 2800 -5 663 -14 1851 -20 2640 -5
789 -12 1651 -16 1914 l-5 479 398 -6 c219 -4 547 -7 729 -7z"/>
<path d="M4394 12555 c-136 -30 -260 -122 -312 -233 -24 -50 -27 -69 -27 -157
0 -91 3 -105 30 -158 111 -220 416 -303 659 -180 67 34 146 116 182 188 26 53
29 71 29 150 0 82 -3 97 -32 156 -60 121 -185 212 -328 238 -74 14 -124 13
-201 -4z m185 -350 c36 -18 44 -39 23 -58 -44 -40 -118 -47 -172 -18 -47 25
-49 46 -8 71 40 24 116 27 157 5z"/>
<path d="M2387 9540 l-35 -30 -440 0 c-280 0 -443 -4 -447 -10 -9 -14 7 -1046
16 -1061 5 -9 116 -9 493 1 267 8 490 17 496 20 7 4 14 120 21 326 5 175 12
347 15 381 l5 62 75 58 c73 57 81 68 66 88 -18 24 -211 195 -220 195 -6 0 -27
-13 -45 -30z m97 -91 c25 -22 44 -44 41 -49 -3 -4 2 -13 10 -20 14 -12 13 -16
-7 -38 -13 -14 -18 -22 -11 -19 11 7 -252 -266 -511 -527 -70 -72 -126 -123
-123 -114 4 10 2 17 -5 15 -6 -1 -13 4 -16 12 -3 9 0 11 8 6 9 -5 11 -4 6 4
-4 6 -11 9 -16 6 -4 -3 -20 15 -34 39 -29 49 -32 61 -14 50 7 -4 8 -3 4 5 -4
6 -11 9 -16 6 -4 -3 -20 15 -34 39 -29 50 -32 61 -13 50 7 -4 9 -3 4 2 -5 5
-13 9 -17 9 -5 0 -23 21 -39 47 l-30 47 41 37 42 37 55 -111 c33 -67 63 -114
74 -118 12 -4 29 3 45 18 15 12 20 15 13 6 -22 -30 -7 -20 25 14 16 18 19 24
7 14 -13 -11 -23 -15 -23 -9 0 12 45 55 52 48 2 -3 15 7 29 22 22 25 22 26 2
9 -32 -27 -29 -5 4 25 14 13 23 18 19 12 -11 -20 -1 -15 20 9 15 19 16 20 2 9
-10 -7 -18 -9 -18 -4 0 13 35 45 42 38 3 -3 11 3 19 12 13 16 12 17 -3 4 -26
-20 -22 2 4 25 12 10 18 13 14 7 -11 -20 -1 -15 20 9 15 19 16 20 2 9 -10 -7
-18 -9 -18 -3 0 12 25 34 32 27 3 -3 11 3 19 12 13 16 12 17 -3 4 -10 -7 -18
-9 -18 -3 0 12 25 34 32 27 3 -3 11 3 19 12 13 16 12 17 -3 4 -26 -20 -22 2 4
25 12 10 18 13 14 7 -11 -20 -1 -15 20 9 15 19 16 20 2 9 -10 -7 -18 -9 -18
-3 0 12 25 34 32 27 3 -3 11 3 19 12 13 16 12 17 -3 4 -26 -20 -22 2 4 25 12
10 18 13 14 7 -11 -20 -1 -15 20 9 15 19 16 20 2 9 -25 -19 -23 2 2 24 11 10
20 15 20 10 0 -4 7 -2 15 5 8 7 12 17 9 22 -6 9 43 68 56 68 4 0 28 -18 54
-41z m-206 -31 c-19 -24 -74 -95 -123 -158 -113 -146 -248 -310 -255 -310 -3
0 -30 50 -60 110 -40 81 -59 110 -73 110 -18 0 -167 -126 -167 -142 0 -8 246
-417 260 -431 4 -5 17 -6 29 -2 11 3 141 132 287 286 147 154 268 278 269 277
2 -2 -2 -147 -8 -324 l-10 -321 -146 -6 c-80 -4 -281 -10 -447 -13 l-301 -7
-6 288 c-4 159 -7 375 -7 481 l0 194 213 3 c116 1 295 3 396 5 l183 2 -34 -42z
m286 -69 c-10 -11 -22 -19 -27 -19 -6 0 -3 8 6 18 15 17 15 19 -1 36 -16 18
-16 18 11 1 26 -17 27 -19 11 -36z"/>
<path d="M2410 9453 l-24 -28 24 22 24 23 31 -28 30 -27 -29 33 c-17 17 -30
32 -31 32 -1 0 -12 -12 -25 -27z"/>
<path d="M2350 9173 l-145 -148 148 145 c81 80 147 146 147 147 0 8 -16 -7
-150 -144z"/>
<path d="M1724 9048 c-19 -23 -19 -23 2 -5 11 9 24 14 29 10 4 -5 5 -2 1 5 -9
16 -10 16 -32 -10z"/>
<path d="M1776 9007 c3 -10 9 -15 12 -12 3 3 0 11 -7 18 -10 9 -11 8 -5 -6z"/>
<path d="M1715 8970 c9 -16 18 -30 21 -30 2 0 -2 14 -11 30 -9 17 -18 30 -21
30 -2 0 2 -13 11 -30z"/>
<path d="M2075 8888 l-100 -103 103 100 c56 55 102 101 102 102 0 8 -12 -4
-105 -99z"/>
<path d="M1812 8935 c12 -24 23 -43 26 -41 4 5 -36 86 -43 86 -3 0 5 -20 17
-45z"/>
<path d="M1770 8880 c6 -11 13 -20 16 -20 2 0 0 9 -6 20 -6 11 -13 20 -16 20
-2 0 0 -9 6 -20z"/>
<path d="M1878 8843 c6 -2 18 -2 25 0 6 3 1 5 -13 5 -14 0 -19 -2 -12 -5z"/>
<path d="M1830 8780 c6 -11 13 -20 16 -20 2 0 0 9 -6 20 -6 11 -13 20 -16 20
-2 0 0 -9 6 -20z"/>
<path d="M2867 8963 c-13 -12 -7 -41 9 -47 9 -3 921 -6 2029 -6 2136 0 2047
-2 2029 44 -6 15 -170 16 -2033 16 -1115 0 -2031 -3 -2034 -7z"/>
<path d="M2434 8050 l-60 -61 -438 -6 c-358 -5 -439 -9 -443 -20 -3 -8 -1
-242 3 -521 l9 -507 160 0 c264 0 791 17 806 25 10 7 16 91 25 372 l13 363 58
53 c32 30 82 72 111 94 28 22 52 48 52 57 0 16 -201 203 -224 209 -6 1 -38
-25 -72 -58z m129 -72 c29 -28 41 -43 27 -32 l-25 19 19 -22 c10 -13 23 -20
28 -17 5 3 16 0 24 -7 13 -10 12 -15 -7 -36 -24 -25 -49 -32 -29 -8 22 26 4
16 -21 -12 -18 -20 -19 -24 -4 -13 11 8 -124 -133 -299 -313 l-319 -327 -19
27 c-20 32 -23 47 -6 37 7 -4 8 -3 4 5 -4 6 -11 9 -16 6 -4 -3 -20 15 -34 39
-29 49 -32 61 -14 50 7 -4 8 -3 4 5 -4 6 -11 9 -16 6 -4 -3 -20 15 -34 39 -29
50 -32 61 -13 50 7 -4 9 -3 4 2 -5 5 -13 9 -18 9 -6 0 -20 17 -31 37 -18 31
-19 39 -8 53 7 9 19 14 26 11 7 -3 16 0 20 6 4 7 3 8 -4 4 -18 -11 -14 -1 7
18 19 18 21 15 76 -93 30 -62 62 -114 71 -118 9 -3 27 5 43 21 15 14 30 24 32
21 3 -3 16 7 30 22 13 15 16 21 7 14 -10 -7 -18 -9 -18 -4 0 13 35 45 42 38 3
-3 13 5 24 17 15 18 16 20 2 9 -10 -7 -18 -9 -18 -4 0 13 35 45 42 38 3 -3 13
5 24 17 l19 23 -22 -19 c-13 -11 -23 -15 -23 -9 0 13 35 45 42 38 3 -3 13 5
24 17 l19 23 -22 -19 c-13 -11 -23 -15 -23 -9 0 13 35 45 42 38 3 -3 11 3 19
12 13 16 12 17 -3 4 -10 -7 -18 -9 -18 -3 0 12 25 34 32 27 3 -3 11 3 19 12
13 16 12 17 -3 4 -26 -20 -22 2 4 25 12 10 18 13 14 7 -11 -20 -1 -15 20 9 15
19 16 20 2 9 -10 -7 -18 -9 -18 -3 0 12 25 34 32 27 3 -3 11 3 19 12 13 16 12
17 -3 4 -10 -7 -18 -9 -18 -3 0 12 25 34 32 27 3 -3 13 5 24 17 l19 23 -22
-19 c-32 -27 -29 -5 4 25 14 13 23 18 19 12 -11 -20 -1 -15 20 9 15 19 16 20
2 9 -10 -7 -18 -10 -18 -7 0 11 94 116 103 116 5 0 32 -23 60 -52z m-243 -53
c0 -15 -336 -435 -348 -435 -4 0 -32 50 -62 110 -39 80 -59 110 -72 110 -10 0
-49 -28 -86 -62 -37 -33 -71 -65 -76 -69 -14 -13 251 -449 273 -449 16 0 183
165 400 395 l104 110 -6 -120 c-4 -66 -10 -206 -13 -311 l-6 -192 -172 -7
c-94 -3 -288 -9 -432 -13 l-261 -7 -6 200 c-4 110 -7 323 -7 473 l0 272 385 0
c212 0 385 -2 385 -5z"/>
<path d="M2469 7983 l-34 -38 35 32 36 33 24 -23 24 -22 -24 28 c-13 15 -24
27 -25 27 0 0 -17 -17 -36 -37z"/>
<path d="M2505 7798 l-40 -43 43 40 c23 21 42 40 42 42 0 8 -9 0 -45 -39z"/>
<path d="M2375 7668 l-40 -43 43 40 c23 21 42 40 42 42 0 8 -9 0 -45 -39z"/>
<path d="M1831 7575 c12 -19 23 -35 25 -35 2 0 -4 16 -13 35 -9 19 -20 35 -25
35 -4 0 2 -16 13 -35z"/>
<path d="M2235 7518 l-70 -73 73 70 c39 38 72 71 72 72 0 8 -11 -2 -75 -69z"/>
<path d="M1767 7564 c-6 -7 19 -64 29 -64 2 0 -2 13 -10 29 -9 16 -12 31 -9
35 4 3 4 6 1 6 -2 0 -7 -3 -11 -6z"/>
<path d="M1860 7521 c0 -6 4 -13 10 -16 6 -3 7 1 4 9 -7 18 -14 21 -14 7z"/>
<path d="M1880 7481 c0 -6 4 -13 10 -16 6 -3 7 1 4 9 -7 18 -14 21 -14 7z"/>
<path d="M1830 7440 c6 -11 13 -20 16 -20 2 0 0 9 -6 20 -6 11 -13 20 -16 20
-2 0 0 -9 6 -20z"/>
<path d="M1900 7441 c0 -6 4 -13 10 -16 6 -3 7 1 4 9 -7 18 -14 21 -14 7z"/>
<path d="M1995 7401 c-6 -5 -21 -11 -35 -14 l-25 -4 26 -2 c15 0 32 6 39 14
14 16 10 21 -5 6z"/>
<path d="M2045 7320 c-61 -62 -82 -77 -92 -68 -11 8 -12 7 -7 -6 3 -9 9 -16
13 -16 3 0 44 38 91 85 47 47 82 85 80 85 -3 0 -41 -36 -85 -80z"/>
<path d="M1890 7340 c6 -11 13 -20 16 -20 2 0 0 9 -6 20 -6 11 -13 20 -16 20
-2 0 0 -9 6 -20z"/>
<path d="M2864 7575 c-4 -8 -4 -22 0 -30 5 -13 239 -15 2029 -15 1787 0 2026
2 2037 15 10 12 10 18 0 30 -11 13 -250 15 -2037 15 -1790 0 -2024 -2 -2029
-15z"/>
<path d="M2417 6510 l-77 -80 -414 0 c-336 0 -416 -3 -425 -14 -13 -15 -3
-1006 10 -1027 8 -14 9 -14 564 2 215 6 394 15 399 20 5 4 15 178 22 386 l13
378 68 63 c37 35 87 78 111 95 23 17 42 38 42 47 0 16 -201 202 -224 208 -7 2
-47 -33 -89 -78z m148 -60 c-2 -4 9 -20 25 -35 l30 -29 -22 -23 c-12 -13 -18
-23 -13 -23 5 0 -11 -20 -35 -45 -41 -42 -78 -64 -50 -30 34 41 -6 4 -100 -92
l-105 -108 99 95 c141 135 61 44 -207 -233 l-230 -238 -48 81 c-52 86 -56 96
-37 84 7 -4 8 -3 4 5 -4 6 -11 9 -16 6 -4 -3 -20 15 -34 39 -29 50 -32 61 -13
50 7 -4 9 -3 4 2 -5 5 -13 9 -18 9 -6 0 -20 17 -31 37 -24 41 -20 51 33 89
l28 20 56 -111 c31 -61 63 -114 71 -117 9 -3 30 8 52 28 20 19 30 25 22 14 -8
-11 0 -7 18 9 18 17 32 32 32 34 0 3 -9 -3 -20 -13 -11 -10 -20 -14 -20 -8 0
5 12 20 27 34 14 13 23 18 19 12 -12 -21 -1 -15 25 14 22 25 22 26 2 9 -32
-27 -29 -5 4 25 14 13 23 18 19 12 -11 -20 -1 -15 20 9 15 19 16 20 2 9 -26
-19 -22 2 4 25 12 10 18 13 14 7 -11 -20 -1 -15 20 9 15 19 16 20 2 9 -26 -19
-22 2 4 25 12 10 18 13 14 7 -11 -20 -1 -15 20 9 15 19 16 20 2 9 -10 -7 -18
-9 -18 -3 0 12 25 34 32 27 3 -3 11 3 19 12 13 16 12 17 -3 4 -10 -7 -18 -9
-18 -3 0 12 25 34 32 27 3 -3 11 3 19 12 13 16 12 17 -3 4 -10 -7 -18 -9 -18
-3 0 12 25 34 32 27 3 -3 11 3 19 12 13 16 12 17 -3 4 -26 -20 -22 2 4 25 12
10 18 13 14 7 -11 -20 -1 -15 20 9 15 19 16 20 2 9 -26 -19 -22 2 4 25 12 10
18 13 14 7 -12 -21 -1 -15 25 14 22 25 22 26 2 9 -35 -30 -27 -3 9 30 18 16
26 20 18 9 -8 -11 4 -3 26 18 33 30 42 35 54 25 12 -11 12 -10 0 5 -12 17 -15
16 -42 -9 -36 -35 -37 -19 -1 18 l27 28 33 -32 c18 -17 30 -34 28 -38z m62
-44 c25 -21 19 -37 -21 -58 -20 -10 -20 -9 1 13 l23 23 -33 35 c-31 34 -15 27
30 -13z m-343 -48 c-23 -38 -302 -388 -310 -388 -1 0 -29 49 -61 110 -32 60
-64 112 -70 115 -12 4 -150 -111 -165 -139 -10 -17 247 -440 270 -444 17 -3
149 126 391 383 l113 120 -6 -125 c-3 -69 -9 -216 -12 -327 l-7 -201 -91 -6
c-91 -5 -770 -25 -773 -22 -1 0 -5 211 -9 469 l-7 467 372 0 c295 0 371 -3
365 -12z"/>
<path d="M2529 6303 c-13 -16 -12 -17 4 -4 9 7 17 15 17 17 0 8 -8 3 -21 -13z"/>
<path d="M1787 6062 c-25 -26 -26 -30 -11 -48 15 -18 15 -18 5 2 -8 17 -6 25
12 43 19 17 26 18 36 8 10 -9 11 -8 6 6 -10 23 -17 22 -48 -11z"/>
<path d="M1840 6041 c0 -6 4 -13 10 -16 6 -3 7 1 4 9 -7 18 -14 21 -14 7z"/>
<path d="M2210 5973 l-65 -68 68 65 c37 35 67 66 67 67 0 8 -10 -2 -70 -64z"/>
<path d="M1860 6001 c0 -6 4 -13 10 -16 6 -3 7 1 4 9 -7 18 -14 21 -14 7z"/>
<path d="M1880 5961 c0 -6 4 -13 10 -16 6 -3 7 1 4 9 -7 18 -14 21 -14 7z"/>
<path d="M1830 5920 c6 -11 13 -20 16 -20 2 0 0 9 -6 20 -6 11 -13 20 -16 20
-2 0 0 -9 6 -20z"/>
<path d="M1900 5921 c0 -6 4 -13 10 -16 6 -3 7 1 4 9 -7 18 -14 21 -14 7z"/>
<path d="M1958 5863 c7 -3 16 -2 19 1 4 3 -2 6 -13 5 -11 0 -14 -3 -6 -6z"/>
<path d="M1889 5825 c5 -11 17 -29 26 -40 l16 -20 -10 20 c-5 11 -17 29 -26
40 l-16 20 10 -20z"/>
<path d="M2020 5775 l-55 -55 -18 22 -18 23 12 -27 c7 -16 15 -28 18 -28 4 0
33 27 66 60 33 33 57 60 54 60 -2 0 -29 -25 -59 -55z"/>
<path d="M2807 5973 c-13 -12 -7 -41 9 -47 9 -3 921 -6 2029 -6 1769 0 2014 2
2025 15 7 8 10 22 6 30 -5 13 -232 15 -2034 15 -1116 0 -2032 -3 -2035 -7z"/>
<path d="M1482 4927 c-14 -16 1 -1064 15 -1078 11 -11 993 17 1004 28 9 10 44
1025 36 1047 -6 14 -61 16 -525 16 -415 0 -522 -3 -530 -13z m999 -142 c-4
-203 -28 -856 -32 -859 -5 -4 -900 -29 -904 -24 -1 2 -5 222 -9 490 l-7 488
383 3 c211 1 425 2 477 2 l94 0 -2 -100z"/>
<path d="M2843 4444 c-3 -8 -1 -20 4 -25 5 -5 757 -8 1954 -7 1936 3 1944 3
1944 23 0 20 -8 20 -1948 23 -1762 2 -1948 1 -1954 -14z"/>
<path d="M1502 3441 c-11 -6 -12 -107 -6 -549 4 -297 11 -546 15 -553 9 -15
-24 -15 594 2 288 8 424 15 432 23 14 13 52 1037 40 1069 -6 16 -42 17 -534
17 -290 0 -534 -4 -541 -9z m1021 -163 c-3 -62 -10 -280 -17 -485 -6 -205 -14
-375 -17 -378 -3 -3 -147 -9 -320 -15 -173 -5 -380 -12 -460 -15 l-146 -5 -6
302 c-4 166 -7 393 -7 505 l0 203 489 0 488 0 -4 -112z"/>
<path d="M2806 2954 c-18 -46 -108 -44 2033 -44 1109 0 2022 4 2029 9 8 5 12
17 10 27 -3 19 -55 19 -2035 22 -1869 2 -2031 1 -2037 -14z"/>
</g>
</svg>
